<svg width="775" height="1065" viewBox="0 0 775 1065" fill="none" xmlns="http://www.w3.org/2000/svg">
<path fill-rule="evenodd" clip-rule="evenodd" d="M435.921 0.558999C433.419 1.02 427.569 3.307 422.921 5.641C406.064 14.105 394.018 30.732 391.724 48.702C388.369 74.986 400.435 98.099 423.329 109.242C428.278 111.65 433.147 113.621 434.149 113.621C435.704 113.621 435.968 114.465 435.948 119.371C435.934 122.533 435.471 127.083 434.918 129.481C433.721 134.67 427.343 148.621 426.167 148.621C425.714 148.621 424.577 150.084 423.642 151.871C422.707 153.658 420.121 157.371 417.895 160.121C408.648 171.546 402.049 184.586 399.988 195.507C398.084 205.597 399.257 227.538 401.892 231.121C402.297 231.671 403.44 234.371 404.433 237.121C408.446 248.234 417.593 260.723 426.046 266.627C427.93 267.944 429.832 269.606 430.272 270.321C430.712 271.036 431.547 271.621 432.129 271.621C432.71 271.621 436.175 273.083 439.829 274.871C446.245 278.01 446.899 278.121 458.972 278.121C470.903 278.121 471.859 277.964 479.972 274.68C484.647 272.787 490.497 269.87 492.972 268.196C499.155 264.015 507.368 254.55 510.7 247.767C513.094 242.89 513.517 240.68 513.806 231.54C514.151 220.624 512.438 212.966 509.847 213.829C509.212 214.041 507.708 217.118 506.505 220.668C501.027 236.826 495.544 244.001 484.318 249.699C478.283 252.762 476.679 253.118 467.359 253.463C455.135 253.916 451.106 252.459 443.507 244.84C434.781 236.091 430.308 223.138 431.253 209.355C431.989 198.611 435.856 190.956 446.273 179.621C447.536 178.246 449.673 175.563 451.021 173.659C452.369 171.754 454.22 169.349 455.134 168.314C456.048 167.279 459.107 162.087 461.932 156.777C467.736 145.864 470.678 134.391 471.09 121.072C471.225 116.699 471.54 112.524 471.79 111.793C472.041 111.063 474.63 109.336 477.545 107.956C485.543 104.17 495.034 94.045 500.491 83.48C506.197 72.432 507.864 62.254 506.193 48.679C505.077 39.619 499.649 26.085 497.631 27.332C497.086 27.669 496.986 27.407 497.403 26.733C498.405 25.112 490.07 15.496 483.378 10.552C480.452 8.39 477.845 6.621 477.584 6.621C477.324 6.621 474.097 5.226 470.414 3.521C464.369 0.723001 462.582 0.386001 452.094 0.0700006C445.702 -0.122999 438.424 0.096999 435.921 0.558999ZM460.324 38.423C473.732 45.682 474.818 65.539 462.329 75.075C457.244 78.957 452.107 80.118 444.322 79.145C439.434 78.535 438.292 77.898 433.501 73.107C428.91 68.515 428.018 66.992 427.254 62.436C426.164 55.941 427.663 48.311 430.883 43.955C433.186 40.84 438.95 37.095 443.798 35.562C447.864 34.277 454.923 35.499 460.324 38.423ZM388.829 285.332C382.73 293.417 370.041 312.619 370.777 312.651C371.159 312.668 370.684 313.14 369.722 313.701C368.76 314.262 367.972 315.139 367.972 315.651C367.972 316.163 365.798 319.854 363.14 323.852C355.492 335.358 351.43 341.794 348.928 346.371C347.649 348.708 346.237 350.621 345.788 350.621C345.339 350.621 344.972 351.208 344.972 351.925C344.972 352.643 343.555 355.455 341.823 358.175C340.091 360.895 337.68 364.921 336.467 367.121C335.253 369.321 331.046 376.373 327.116 382.793C323.187 389.213 319.972 394.734 319.972 395.063C319.972 395.392 318.746 397.564 317.247 399.891C315.748 402.217 313.7 405.909 312.696 408.093C311.692 410.278 310.521 412.303 310.094 412.593C309.041 413.309 296.472 436.864 296.472 438.121C296.472 438.671 295.944 439.571 295.298 440.121C293.823 441.379 289.069 450.08 273.994 479.121C269.688 487.416 268.886 488.356 263.765 491.121C260.708 492.771 255.792 495.519 252.84 497.228C249.887 498.937 241.847 503.489 234.972 507.344C228.097 511.199 220.672 515.392 218.472 516.662C214.362 519.036 203.331 525.245 177.972 539.459C169.997 543.929 162.797 548.023 161.972 548.557C161.147 549.091 155.297 552.403 148.972 555.917C142.647 559.43 132.522 565.126 126.472 568.573C120.422 572.02 112.997 576.217 109.972 577.9C106.947 579.583 102.672 581.996 100.472 583.263C98.2723 584.53 93.9973 586.927 90.9723 588.59C87.9473 590.253 82.7723 593.17 79.4723 595.072C72.7503 598.945 54.8753 608.944 48.5863 612.348C46.3233 613.573 43.9992 614.923 43.4212 615.348C42.8432 615.773 41.4932 616.613 40.4212 617.215C39.3492 617.817 37.3473 618.942 35.9723 619.715C34.5973 620.488 33.1413 621.571 32.7373 622.121C32.3333 622.671 31.9963 622.788 31.9873 622.38C31.9753 621.762 27.4823 624.121 19.9723 628.688C19.1473 629.19 16.6723 630.556 14.4723 631.725C7.56025 635.396 3.81726 638.75 1.88526 643.005C0.0802553 646.981 0.0152531 653.964 0.000253073 848.121C-0.0107469 976.658 0.337249 1050.4 0.965249 1052.66C1.50525 1054.6 3.77426 1057.98 6.00826 1060.16L10.0683 1064.12L199.77 1064.42C328.629 1064.62 390.624 1064.38 393.062 1063.67C396.704 1062.62 400.707 1058.79 413.972 1043.68C417.547 1039.61 421.822 1034.85 423.472 1033.11C429.992 1026.22 432.972 1022.63 432.972 1021.65C432.972 1021.08 433.562 1020.62 434.284 1020.62C435.006 1020.62 436.514 1019.38 437.636 1017.87C439.589 1015.24 451.189 1002.53 462.701 990.404C465.994 986.936 467.842 984.219 467.397 983.499C466.979 982.824 467.089 982.575 467.65 982.922C468.192 983.257 470.174 981.844 472.054 979.78C473.934 977.717 479.297 971.795 483.972 966.62C488.647 961.445 494.989 954.491 498.066 951.166C501.143 947.841 508.749 939.496 514.967 932.621C539.001 906.05 551.515 892.307 556.972 886.492C558.897 884.441 563.172 879.729 566.472 876.023C573.161 868.51 583.164 857.496 592.374 847.506C595.728 843.867 601.172 837.863 604.472 834.164C607.772 830.464 612.217 825.566 614.35 823.279C616.482 820.992 621.207 815.783 624.85 811.704C628.492 807.625 632.827 802.9 634.483 801.204C636.139 799.508 643.114 791.832 649.983 784.146C656.852 776.46 663.147 769.439 663.972 768.544C664.797 767.649 669.297 762.707 673.972 757.561C678.647 752.416 685.397 745.019 688.972 741.124C692.547 737.229 698.542 730.685 702.295 726.581C706.048 722.478 710.361 717.771 711.88 716.121C713.4 714.471 719.066 708.171 724.471 702.121C729.877 696.071 735.239 690.176 736.386 689.021C737.533 687.866 741.676 683.366 745.592 679.021C749.508 674.676 756.613 666.846 761.381 661.621C775.463 646.189 773.969 663.354 773.949 517.282C773.937 435.916 773.574 389.858 772.925 387.448C772.372 385.393 770.753 382.325 769.327 380.631C764.351 374.718 762.92 374.423 731.972 372.927C716.297 372.17 701.672 371.34 699.472 371.083C688.7 369.826 590.977 366.183 582.472 366.721C581.372 366.791 575.747 366.16 569.972 365.319C564.197 364.478 550.135 363.477 538.722 363.095C527.309 362.713 517.956 362.113 517.936 361.761C517.916 361.409 517.243 356.621 516.439 351.121C515.636 345.621 514.528 337.746 513.977 333.621C512.168 320.081 507.443 295.892 506.381 294.73C506.184 294.515 504.007 295.99 501.544 298.009C495.788 302.725 484.049 308.791 476.222 311.094C473.793 311.809 473.47 313.17 474.861 316.83C475.35 318.116 476.725 326.358 477.916 335.145C479.107 343.932 480.48 353.146 480.966 355.621C483.346 367.721 483.495 366.945 478.136 370.418C475.463 372.15 472.42 373.89 471.374 374.283C470.328 374.677 467.216 376.377 464.458 378.06C457.424 382.355 454.145 384.213 448.972 386.838C446.497 388.094 444.247 389.365 443.972 389.664C443.147 390.559 426.769 399.621 425.976 399.621C425.572 399.621 424.169 400.457 422.857 401.479C421.545 402.5 415.972 405.692 410.472 408.57C404.972 411.449 399.797 414.371 398.972 415.064C398.147 415.757 393.197 418.643 387.972 421.477C382.747 424.311 376.222 427.967 373.472 429.602C368.123 432.782 363.303 435.411 353.011 440.762C349.458 442.609 345.876 444.746 345.051 445.51C344.226 446.274 342.183 447.526 340.512 448.292C338.84 449.058 336.122 450.537 334.472 451.58C331.496 453.46 327.972 454.216 327.972 452.975C327.972 452.619 329.547 449.955 331.472 447.055C333.397 444.155 334.972 441.471 334.972 441.09C334.972 440.71 337.222 436.674 339.972 432.121C342.722 427.568 344.972 423.537 344.972 423.162C344.972 422.788 346.32 420.522 347.968 418.127C349.616 415.732 351.427 412.555 351.993 411.066C352.559 409.578 353.939 407.072 355.06 405.497C356.181 403.923 356.775 402.112 356.381 401.473C355.934 400.751 356.1 400.582 356.819 401.027C357.524 401.462 358.359 400.735 358.955 399.167C359.493 397.751 360.782 395.361 361.819 393.857C362.855 392.352 367.003 385.496 371.035 378.621C375.068 371.746 379.178 365.192 380.169 364.057C381.161 362.921 381.973 361.571 381.974 361.057C381.976 360.542 383.663 357.586 385.724 354.489C387.786 351.391 391.722 345.366 394.472 341.1C397.222 336.834 399.922 332.647 400.472 331.794C401.022 330.942 403.722 326.902 406.472 322.817C409.222 318.731 412.101 314.428 412.87 313.255C413.638 312.081 415.101 309.902 416.12 308.411C417.138 306.921 417.972 305.501 417.972 305.256C417.972 305.01 415.883 303.426 413.33 301.735C410.776 300.043 408.051 297.751 407.273 296.64C406.495 295.53 405.276 294.621 404.565 294.621C403.462 294.621 398.188 288.65 393.71 282.332C392.551 280.697 392.132 280.954 388.829 285.332ZM737.972 530.758V633.895L731.282 641.508C727.603 645.695 722.919 650.921 720.873 653.121C713.836 660.689 704.292 671.129 700.385 675.532C698.233 677.958 695.347 681.137 693.972 682.596C692.597 684.054 687.872 689.248 683.472 694.136C679.072 699.025 674.303 704.25 672.874 705.747C671.446 707.245 669.047 709.966 667.544 711.796C666.041 713.625 660.46 719.794 655.141 725.506C649.823 731.217 644.797 736.889 643.972 738.109C643.147 739.33 640.897 741.879 638.972 743.775C637.047 745.67 633.222 749.839 630.472 753.039C627.722 756.24 623.222 761.153 620.472 763.959C617.722 766.764 613.956 770.873 612.102 773.09C610.249 775.307 603.38 782.805 596.838 789.752C590.296 796.699 583.712 803.919 582.208 805.798C578.321 810.649 565.024 825.302 552.875 838.121C549.747 841.421 545.911 845.471 544.35 847.121C542.79 848.771 539.522 852.371 537.089 855.121C534.656 857.871 528.571 864.61 523.568 870.096C496.919 899.321 486.419 910.875 480.472 917.519C477.722 920.591 472.728 926.034 469.375 929.613C466.021 933.192 460.846 938.835 457.875 942.152C438.337 963.964 434.866 967.787 419.769 984.121C416.21 987.971 411.587 993.045 409.495 995.397C407.403 997.749 405.52 999.503 405.311 999.294C405.102 999.085 404.932 922.685 404.934 829.517L404.937 660.121L408.118 657.411C409.868 655.921 414.938 652.217 419.386 649.18C423.833 646.143 431.297 640.944 435.972 637.627C440.647 634.311 445.762 630.815 447.338 629.859C448.914 628.903 451.961 626.686 454.11 624.931C456.259 623.177 458.907 621.459 459.995 621.114C461.082 620.769 461.972 620.095 461.972 619.618C461.972 619.14 463.752 617.749 465.927 616.526L469.882 614.303L467.749 611.212L465.617 608.121L468.339 610.588C470.293 612.357 471.458 612.781 472.463 612.088C473.234 611.556 477.023 608.965 480.884 606.33C484.745 603.695 488.175 601.101 488.506 600.566C488.837 600.031 490.765 598.681 492.79 597.567C496.956 595.274 503.842 590.535 512.594 583.937C514.917 582.185 518.161 580.057 519.804 579.208C521.447 578.358 522.944 577.298 523.132 576.852C523.319 576.406 524.904 575.159 526.655 574.081C528.405 573.003 533.355 569.608 537.655 566.536C541.954 563.465 548.397 558.915 551.972 556.427C555.547 553.938 560.497 550.476 562.972 548.734C568.834 544.606 577.598 538.572 580.877 536.406C582.304 535.463 584.372 533.996 585.472 533.147C591.781 528.278 594.176 526.566 600.96 522.076C605.079 519.351 609.004 516.603 609.684 515.969C610.363 515.335 612.618 513.777 614.695 512.506C616.773 511.236 619.077 509.606 619.817 508.885C620.556 508.164 622.581 506.847 624.317 505.958C626.052 505.069 627.697 504.046 627.972 503.683C628.247 503.321 630.047 501.936 631.972 500.606C633.897 499.275 636.021 497.722 636.691 497.154C637.362 496.586 640.062 494.653 642.691 492.859C645.321 491.065 651.072 487.049 655.472 483.934C659.872 480.82 667.072 475.8 671.472 472.78C675.872 469.759 681.947 465.544 684.972 463.413C687.997 461.282 692.047 458.457 693.972 457.136C695.897 455.814 699.722 453.122 702.472 451.154C706.895 447.988 716.41 441.34 726.972 434.037C728.897 432.706 731.523 430.717 732.807 429.619C738.27 424.945 737.972 419.115 737.972 530.758ZM695.269 506.881C692.958 508.663 687.638 512.596 683.448 515.621C679.257 518.646 673.511 522.809 670.677 524.871C667.844 526.934 665.176 528.621 664.749 528.621C664.322 528.621 663.972 559.499 663.972 597.239V665.856L667.792 661.989C669.893 659.861 674.7 654.521 678.475 650.121C685.5 641.933 687.12 640.127 695.911 630.687L700.972 625.253V564.437C700.972 530.988 700.635 503.625 700.222 503.631C699.809 503.636 697.581 505.099 695.269 506.881ZM622.972 559.441C622.147 559.815 616.972 563.496 611.473 567.621C605.973 571.746 600.171 575.942 598.578 576.944C596.986 577.947 595.038 579.413 594.249 580.201C593.461 580.989 591.951 582.097 590.894 582.663C589.021 583.665 588.972 585.847 588.972 667.396V751.1L592.722 746.716C594.785 744.304 598.774 739.809 601.586 736.726C604.399 733.643 609.064 728.421 611.952 725.121C614.84 721.821 618.951 717.213 621.087 714.881L624.972 710.641V634.631C624.972 592.826 624.86 558.653 624.722 558.691C624.584 558.73 623.797 559.067 622.972 559.441ZM543.335 617.007C539.959 619.545 536.697 621.621 536.085 621.621C535.473 621.621 534.972 622.003 534.972 622.47C534.972 622.937 531.26 625.869 526.722 628.986C513.15 638.309 513.972 637.127 513.972 647.331C513.972 652.912 514.419 656.668 515.172 657.421C516.105 658.354 516.105 658.621 515.172 658.621C514.248 658.621 513.978 678.885 513.997 746.871L514.022 835.121L517.747 831.106C531.735 816.03 534.472 812.418 534.151 809.463C533.874 806.92 534.945 805.416 541.906 798.566L549.983 790.618L549.727 701.506L549.472 612.394L543.335 617.007ZM257.972 663.121C256.68 664.496 255.173 665.621 254.623 665.621C254.073 665.621 254.68 664.496 255.972 663.121C257.264 661.746 258.771 660.621 259.321 660.621C259.871 660.621 259.264 661.746 257.972 663.121ZM468.472 671.042C465.172 673.463 461.347 676.321 459.972 677.395C458.597 678.469 454.322 681.524 450.472 684.184C446.622 686.844 442.458 690.081 441.218 691.377L438.963 693.733L439.218 806.261L439.472 918.789L441.744 916.455C442.994 915.171 446.144 911.672 448.744 908.679C451.344 905.686 456.172 900.275 459.472 896.654C462.772 893.034 467.61 887.686 470.222 884.769L474.972 879.466V773.044C474.972 714.511 474.86 666.626 474.722 666.632C474.584 666.637 471.772 668.622 468.472 671.042ZM368.472 848.621V1029.12L352.972 1029.62C344.447 1029.9 269.682 1030.01 186.827 1029.86C50.3092 1029.63 36.1243 1029.46 35.5723 1028.02C34.7763 1025.95 34.7833 671.278 35.5793 669.202C36.1333 667.76 51.3623 667.638 202.33 667.868L368.472 668.121V848.621ZM64.9723 852.121V985.621H82.4723H99.9723V852.121V718.621H82.4723H64.9723V852.121ZM142.983 852.121L143.014 985.621H161.493H179.972V852.121V718.621H161.462H142.951L142.983 852.121ZM224.222 719.271C223.231 719.681 222.972 747.313 222.972 852.704V985.621H240.976H258.979L258.726 852.371L258.472 719.121L241.972 718.938C232.897 718.837 224.91 718.987 224.222 719.271ZM302.64 719.287C302.273 719.653 301.978 779.728 301.983 852.787L301.992 985.621H319.982C329.877 985.621 337.975 985.283 337.98 984.871C338.024 980.493 338.037 904.529 338.008 821.371L337.972 718.621H320.639C311.105 718.621 303.006 718.921 302.64 719.287ZM541.222 802.161C538.334 805.116 535.972 807.778 535.972 808.077C535.972 809.797 538.384 807.917 542.972 802.621C549.405 795.195 548.309 794.907 541.222 802.161Z" fill="#2F2F2F"/>
</svg>
