<svg width="538" height="149" viewBox="0 0 538 149" fill="none" xmlns="http://www.w3.org/2000/svg">
<path fill-rule="evenodd" clip-rule="evenodd" d="M180.004 1.45519C168.59 4.21519 160.14 11.4102 156.769 21.2402C154.677 27.3392 154.37 43.2402 156.224 49.4442C158.951 58.5692 165.362 65.1102 175.401 69.0102C183.223 72.0482 204.595 72.8142 214.485 70.4102C219.556 69.1782 221.895 69.0152 223.348 69.7932C224.434 70.3742 229.965 70.8342 235.638 70.8152L245.954 70.7822L241.99 67.5652C239.81 65.7962 237.002 63.4492 235.75 62.3492L233.473 60.3492L236.714 53.8862C239.807 47.7172 239.954 46.8982 239.954 35.8862C239.954 25.4422 239.698 23.8032 237.255 18.5892C232.769 9.01619 225.718 3.86119 213.598 1.29219C205.153 -0.497812 187.729 -0.413812 180.004 1.45519ZM268.454 35.8492V70.8492H277.423H286.392L286.673 58.5992L286.954 46.3492L307.454 45.8292C329.518 45.2692 331.832 44.7842 338.24 39.3812C343.154 35.2382 344.821 31.3032 344.821 23.8492C344.821 16.6832 343.321 12.9172 338.793 8.71319C331.629 2.06219 324.701 0.896187 292.204 0.869187L268.454 0.849187V35.8492ZM371.46 25.5992C371.463 39.7832 371.913 51.9622 372.514 54.1262C374.696 61.9822 383.052 68.0692 394.151 69.8872C397.343 70.4102 406.839 70.8402 415.254 70.8432L430.554 70.8492L430.254 65.0992L429.954 59.3492L414.703 59.1242C398.513 58.8862 394.873 58.0132 391.226 53.4912C389.693 51.5902 389.496 48.5092 389.476 26.0992L389.454 0.849187H380.454H371.454L371.46 25.5992ZM207.766 13.0612C213.139 14.6702 217.827 19.5372 219.393 25.1302C221.169 31.4732 220.41 45.2902 218.017 50.1882C216.986 52.3002 214.333 55.2252 212.122 56.6882C208.74 58.9272 206.771 59.4052 199.7 59.7052C186.342 60.2712 178.167 55.6812 175.514 46.1262C172.919 36.7802 174.959 23.1932 179.738 17.9962C184.957 12.3192 197.764 10.0642 207.766 13.0612ZM319.647 15.1562C324.367 17.1282 326.148 22.2512 323.947 27.5202C321.731 32.8252 318.014 33.8492 300.986 33.8492H286.454V24.0162C286.454 18.6072 286.791 13.8292 287.204 13.3962C288.53 12.0062 315.626 13.4762 319.647 15.1562Z" fill="#308388"/>
<path fill-rule="evenodd" clip-rule="evenodd" d="M160.484 88.212C155.146 90.397 152.385 98.993 154.997 105.298C157.235 110.701 160.633 111.662 176.356 111.337C182.966 111.2 183.165 111.124 181.561 109.352C180.147 107.79 180.061 106.846 180.995 103.138C182.586 96.821 180.643 91.346 175.984 89.019C172.336 87.196 164.023 86.764 160.484 88.212ZM185.984 96.59C185.984 108.62 187.104 110.364 195.272 111.041C202.046 111.603 205.381 110.87 208.009 108.242C209.7 106.551 209.984 104.893 209.984 96.701V87.134L207.234 87.451C204.503 87.765 204.482 87.825 204.19 96.217C204.029 100.865 203.411 105.252 202.818 105.967C202.225 106.682 200.049 107.267 197.984 107.267C195.919 107.267 193.743 106.682 193.15 105.967C192.557 105.252 191.939 100.865 191.778 96.217C191.486 87.825 191.465 87.765 188.734 87.451L185.984 87.134V96.59ZM223.262 88.466C222.118 89.882 211.984 109.904 211.984 110.749C211.984 111.034 213.279 111.267 214.863 111.267C217.118 111.267 218.01 110.618 218.984 108.267C220.165 105.417 220.519 105.267 226.08 105.267C231.572 105.267 232.028 105.452 233.484 108.267C234.68 110.58 235.716 111.267 238.01 111.267C239.646 111.267 240.966 110.929 240.944 110.517C240.923 110.105 238.335 104.817 235.194 98.767C230.372 89.478 229.082 87.72 226.898 87.466C225.476 87.301 223.84 87.751 223.262 88.466ZM242.984 96.185C242.984 101.09 243.264 105.832 243.605 106.722C244.653 109.453 249.574 111.267 255.934 111.267C261.317 111.267 261.984 111.047 261.984 109.267C261.984 107.519 261.317 107.267 256.684 107.267C253.769 107.267 250.844 106.727 250.184 106.067C249.432 105.315 248.984 101.578 248.984 96.067V87.267H245.984H242.984V96.185ZM265.697 87.888C265.305 88.28 264.984 93.729 264.984 99.997V111.394L268.218 111.08L271.453 110.767L271.263 99.267C271.078 88.035 271.02 87.76 268.742 87.471C267.459 87.308 266.088 87.496 265.697 87.888ZM274.364 88.719C273.432 91.149 274.907 92.267 279.043 92.267H282.984V101.767V111.267H286.484H289.984V101.767V92.267H293.784C295.874 92.267 298.025 91.826 298.563 91.288C299.202 90.649 301.009 92.186 303.763 95.712C307.46 100.446 307.984 101.747 307.984 106.192C307.984 111.164 308.045 111.267 310.984 111.267C313.948 111.267 313.984 111.201 313.984 105.859C313.984 100.934 314.386 99.956 318.484 94.926C323.603 88.642 323.981 87.267 320.588 87.267C318.966 87.267 316.923 88.771 314.262 91.923L310.332 96.579L306.989 91.923L303.645 87.267H289.283C277.65 87.267 274.815 87.543 274.364 88.719ZM340.984 99.133V111.267H343.984C346.817 111.267 346.984 111.045 346.984 107.267V103.267H352.335C359.329 103.267 363.44 101.756 364.846 98.67C366.48 95.085 366.277 93.72 363.662 90.679C361.488 88.152 360.691 87.949 351.162 87.49L340.984 87V99.133ZM369.984 99.151V111.267H372.984C375.873 111.267 375.984 111.1 375.984 106.767C375.984 102.285 375.998 102.267 379.509 102.267C382.617 102.267 383.355 102.799 385.751 106.767C388.096 110.649 388.925 111.267 391.786 111.267C395.41 111.267 395.391 111.068 391.246 105.465L388.803 102.164L391.394 99.763C394.587 96.803 394.819 92.333 391.915 89.705C390.264 88.211 387.839 87.752 379.915 87.433L369.984 87.034V99.151ZM405.297 88.369C400.518 89.752 397.984 93.598 397.984 99.468C397.984 108.448 401.556 111.267 412.934 111.267C419.317 111.267 419.984 111.078 419.984 109.267C419.984 107.489 419.317 107.267 413.984 107.267C409.317 107.267 407.54 106.823 405.984 105.267C402.614 101.897 403.559 101.267 411.984 101.267C419.317 101.267 419.984 101.1 419.984 99.267C419.984 97.434 419.317 97.267 412.015 97.267C404.847 97.267 404.112 97.091 404.692 95.517C405.704 92.777 407.039 92.299 413.734 92.282C419.73 92.268 419.984 92.165 419.984 89.767C419.984 87.38 419.725 87.271 414.234 87.357C411.071 87.407 407.05 87.862 405.297 88.369ZM425.984 99.21V111.267H429.093H432.202L431.514 102.767C431.135 98.092 431.06 94.267 431.348 94.267C431.635 94.267 433.323 98.092 435.099 102.767C438.218 110.979 438.436 111.267 441.513 111.267C444.585 111.267 444.814 110.967 447.984 102.767C449.791 98.092 451.497 94.267 451.775 94.267C452.052 94.267 451.985 98.092 451.626 102.767L450.972 111.267H453.978H456.984V99.21V87.152L452.807 87.46C448.642 87.766 448.622 87.787 445.807 94.767C444.254 98.617 442.629 102.604 442.196 103.626C441.584 105.068 440.622 103.496 437.908 96.626L434.41 87.767L430.197 87.46L425.984 87.152V99.21ZM463.651 87.934C463.284 88.3 462.984 93.7 462.984 99.934V111.267H465.984H468.984V99.267C468.984 87.362 468.965 87.267 466.651 87.267C465.367 87.267 464.017 87.567 463.651 87.934ZM474.998 95.517C475.015 106 475.587 108.01 479.061 109.807C483.423 112.063 493.141 111.718 496.349 109.194C498.882 107.202 498.984 106.733 498.984 97.128V87.134L496.234 87.451C493.49 87.766 493.483 87.787 492.984 97.267L492.484 106.767L488.16 107.078C481.695 107.543 480.984 106.46 480.984 96.145V87.267H477.984H474.984L474.998 95.517ZM505.651 87.934C505.284 88.3 504.984 93.7 504.984 99.934V111.267H507.984H510.984L511.023 102.517L511.061 93.767L514.376 102.267C517.567 110.451 517.816 110.778 521.088 111.063L524.486 111.358L527.485 103.063L530.484 94.767L530.774 103.017L531.065 111.267H534.056H537.047L536.766 99.517L536.484 87.767L532.342 87.465L528.201 87.163L524.842 95.711C522.995 100.413 521.224 104.261 520.906 104.263C520.588 104.265 518.875 100.442 517.099 95.767L513.87 87.267H510.094C508.017 87.267 506.017 87.567 505.651 87.934ZM172.984 93.267C175.51 95.793 175.709 102.808 173.329 105.438C171.634 107.312 165.59 107.94 163.297 106.481C161.367 105.254 159.854 100.136 160.522 97.095C161.73 91.595 169.06 89.343 172.984 93.267ZM358.804 95.021C359.146 97.427 358.407 97.899 353.131 98.649C348.413 99.319 346.984 98.496 346.984 95.11V92.167L352.734 92.467C357.831 92.733 358.52 93.023 358.804 95.021ZM387.648 93.834C388.58 96.262 386.727 97.356 381.126 97.685C376.065 97.982 375.984 97.942 375.984 95.127C375.984 92.325 376.096 92.267 381.515 92.267C385.615 92.267 387.202 92.673 387.648 93.834ZM229.942 100.517C229.965 100.929 228.409 101.267 226.484 101.267C222.549 101.267 222.283 100.523 224.609 96.025L226.234 92.883L228.067 96.325C229.075 98.218 229.919 100.105 229.942 100.517ZM155.984 133.185C155.984 138.09 156.264 142.832 156.605 143.722C157.653 146.453 162.574 148.267 168.934 148.267C174.317 148.267 174.984 148.047 174.984 146.267C174.984 144.519 174.317 144.267 169.684 144.267C166.769 144.267 163.844 143.727 163.184 143.067C162.432 142.315 161.984 138.578 161.984 133.067V124.267H158.984H155.984V133.185ZM180.984 126.019C176.007 128.505 173.93 134.525 176.015 140.426C178.064 146.228 181.426 148.446 188.279 148.514C198.202 148.612 202.984 144.83 202.984 136.882C202.984 131.688 201.414 128.499 197.759 126.271C193.623 123.749 185.764 123.631 180.984 126.019ZM213.297 125.369C208.518 126.752 205.984 130.598 205.984 136.468C205.984 145.801 209.421 148.267 222.434 148.267H230.984V141.267V134.267H223.984C217.651 134.267 216.984 134.457 216.984 136.267C216.984 137.934 217.651 138.267 220.984 138.267C224.798 138.267 224.984 138.412 224.984 141.394V144.521L219.925 144.035C213.88 143.454 212.986 142.702 212.305 137.623C211.914 134.707 212.27 133.135 213.73 131.332C215.643 128.97 217.408 128.616 228.734 128.325C230.298 128.285 230.984 127.657 230.984 126.267C230.984 124.443 230.347 124.275 223.734 124.357C219.746 124.407 215.05 124.862 213.297 125.369ZM236.546 125.167C236.201 125.724 235.981 131.15 236.056 137.224L236.193 148.267H239.62H243.047L242.766 136.517L242.484 124.767L239.828 124.46C238.368 124.291 236.891 124.609 236.546 125.167ZM252.243 124.972C247.467 125.893 245.256 133.394 248.813 136.612C250.076 137.756 252.471 138.271 256.563 138.281C264.261 138.298 266.984 139.081 266.984 141.277C266.984 143.741 265.034 144.267 255.902 144.267C248.651 144.267 247.984 144.435 247.984 146.267C247.984 148.137 248.651 148.267 258.261 148.267C270.682 148.267 272.984 147.183 272.984 141.333C272.984 136.049 271.157 134.919 261.616 134.297C254.327 133.822 253.484 133.56 253.484 131.767C253.484 129.932 254.247 129.743 262.734 129.479C271.819 129.197 271.984 129.148 271.984 126.729C271.984 124.29 271.902 124.268 263.234 124.403C258.422 124.478 253.475 124.734 252.243 124.972ZM275.164 126.517C275.43 128.387 276.201 128.819 279.734 129.074L283.984 129.382V138.824V148.267H286.984H289.984V138.767V129.267H294.484C298.617 129.267 298.984 129.063 298.984 126.767V124.267H286.914C274.97 124.267 274.848 124.29 275.164 126.517ZM302.697 124.888C302.305 125.28 301.984 130.7 301.984 136.934V148.267H305.516H309.047L308.766 136.517L308.484 124.767L305.947 124.471C304.551 124.308 303.088 124.496 302.697 124.888ZM320.297 125.348C313.732 127.291 310.8 136.142 314.409 143.122C316.408 146.987 319.92 148.267 328.531 148.267C335.317 148.267 335.984 148.088 335.984 146.267C335.984 144.472 335.317 144.267 329.484 144.267C321.097 144.267 318.47 142.139 319.291 136.013C320.047 130.376 321.72 129.138 329.422 128.52C334.83 128.086 336.019 127.684 335.77 126.376C335.534 125.136 334.091 124.726 329.474 124.586C326.179 124.486 322.05 124.829 320.297 125.348ZM343.369 125.683C339.859 127.231 338.471 130.789 339.906 134.561C341.092 137.681 342.748 138.267 350.375 138.267C357.695 138.267 361.235 140.054 359.074 142.659C358.031 143.915 355.798 144.267 348.862 144.267C340.651 144.267 339.984 144.417 339.984 146.267C339.984 148.141 340.651 148.267 350.529 148.267C360.393 148.267 361.234 148.108 363.529 145.812C366.253 143.089 366.517 141.532 364.87 137.916C363.595 135.118 360.562 134.267 351.859 134.267C346.283 134.267 345.984 134.142 345.984 131.805C345.984 129.386 346.149 129.337 355.234 129.055C363.721 128.791 364.484 128.602 364.484 126.767C364.484 124.932 363.741 124.748 355.484 124.538C349.565 124.387 345.418 124.779 343.369 125.683ZM389.243 124.972C386.525 125.496 383.984 128.887 383.984 131.99C383.984 136.104 387.333 138.265 393.734 138.281C401.867 138.3 404.155 139.066 403.786 141.647C403.507 143.608 402.789 143.789 394.234 144.055C385.807 144.316 384.984 144.517 384.984 146.305C384.984 148.129 385.717 148.267 395.373 148.267C403.813 148.267 406.15 147.939 407.831 146.517C410.932 143.892 411.474 140.093 409.154 137.229C407.45 135.124 406.2 134.769 399.343 134.444C390.88 134.043 389.567 133.518 390.558 130.934C391.089 129.551 392.712 129.267 400.091 129.267C408.91 129.267 408.984 129.246 408.984 126.767C408.984 124.28 408.937 124.268 400.234 124.403C395.422 124.478 390.475 124.734 389.243 124.972ZM417.714 135.778C414.562 142.109 411.984 147.509 411.984 147.778C411.984 148.047 413.279 148.267 414.863 148.267C417.118 148.267 418.01 147.618 418.984 145.267C420.165 142.417 420.519 142.267 426.08 142.267C431.572 142.267 432.028 142.452 433.484 145.267C434.68 147.58 435.716 148.267 438.01 148.267C439.646 148.267 440.984 148.047 440.984 147.778C440.984 147.509 438.406 142.109 435.254 135.778C429.828 124.877 429.363 124.267 426.484 124.267C423.605 124.267 423.14 124.877 417.714 135.778ZM449.403 125.321C445.02 126.624 442.825 129.5 442.238 134.71C441.156 144.302 445.733 148.267 457.885 148.267C464.317 148.267 464.984 148.079 464.984 146.267C464.984 144.478 464.317 144.267 458.675 144.267C450.409 144.267 448.484 142.872 448.484 136.883C448.484 130.653 450.238 129.177 458.422 128.52C463.83 128.086 465.019 127.684 464.77 126.376C464.534 125.136 463.091 124.726 458.474 124.586C455.179 124.486 451.097 124.817 449.403 125.321ZM193.629 129.731C197.331 132.324 197.358 141.137 193.671 143.481C191.554 144.828 185.69 144.311 183.813 142.612C181.221 140.266 181.322 132.929 183.984 130.267C186.339 127.912 190.687 127.671 193.629 129.731ZM429.942 137.517C429.965 137.929 428.175 138.267 425.964 138.267H421.943L424.085 134.068L426.227 129.87L428.064 133.318C429.074 135.215 429.919 137.105 429.942 137.517Z" fill="#3A4B76"/>
<path fill-rule="evenodd" clip-rule="evenodd" d="M54.6573 12.493L39.9983 16.986L37.4623 22.593C36.0673 25.676 35.0133 28.283 35.1203 28.385C35.2273 28.487 40.4903 27.565 46.8153 26.337C56.6163 24.433 77.3163 17.275 80.0453 14.846C80.4473 14.488 78.1973 12.802 75.0453 11.098L69.3153 8L54.6573 12.493ZM74.8153 9.236C74.8153 9.499 76.5033 10.559 78.5653 11.59C82.2903 13.452 82.3493 13.449 87.3153 11.172L92.3153 8.879L83.5653 8.817C78.7533 8.784 74.8153 8.972 74.8153 9.236ZM107.335 16.909C107.656 21.5 108.141 26.718 108.412 28.506L108.906 31.756L116.61 31.682C120.848 31.641 126.236 31.304 128.583 30.932L132.852 30.256L122.139 21.256C116.247 16.306 110.375 11.425 109.089 10.409L106.752 8.561L107.335 16.909ZM94.3153 13.24C90.4653 15.009 87.4213 16.756 87.5513 17.122C87.8803 18.047 102.519 30.756 103.256 30.756C104.028 30.756 102.764 11.456 101.938 10.64C101.596 10.301 98.1653 11.471 94.3153 13.24ZM75.0033 21.694C70.4313 23.775 66.7053 25.783 66.7223 26.158C66.7393 26.532 70.3383 29.497 74.7193 32.745L82.6843 38.651L83.2073 33.453C84.5533 20.072 84.6733 17.761 84.0183 17.834C83.6313 17.877 79.5753 19.614 75.0033 21.694ZM85.4633 24.006C85.1163 26.894 84.8283 31.324 84.8243 33.852L84.8153 38.447L93.4933 35.413L102.17 32.378L94.7433 25.587C90.6573 21.852 87.0403 18.787 86.7043 18.776C86.3683 18.765 85.8103 21.118 85.4633 24.006ZM27.9043 25.316C23.3053 28.308 19.9783 30.756 20.5113 30.756C21.0453 30.756 24.0573 30.239 27.2043 29.607C32.4203 28.559 33.1053 28.108 34.9413 24.51C36.0483 22.339 36.8003 20.408 36.6113 20.219C36.4223 20.03 32.5043 22.324 27.9043 25.316ZM58.8793 31.006C53.5233 44.602 50.8153 51.822 50.8153 52.505C50.8153 52.959 53.6283 54.949 57.0653 56.927C60.5033 58.905 65.0003 61.519 67.0593 62.735L70.8033 64.947L75.9613 54.337C78.7983 48.502 80.9393 43.585 80.7173 43.41C76.8513 40.363 60.6693 28.756 60.2883 28.756C60.0003 28.756 59.3673 29.768 58.8793 31.006ZM42.0353 31.549C37.4803 32.387 33.8803 33.416 34.0353 33.835C34.4683 35.01 46.1583 49.747 46.4363 49.468C46.5713 49.333 48.2683 44.842 50.2053 39.489C54.2253 28.385 55.0203 29.157 42.0353 31.549ZM110.083 40.833C110.387 45.276 110.879 49.153 111.175 49.45C111.59 49.864 124.47 39.708 131.265 33.609C131.795 33.133 127.204 32.756 120.872 32.756H109.529L110.083 40.833ZM22.0703 35.183C18.6353 35.859 15.5513 36.686 15.2173 37.02C14.5903 37.648 23.8883 54.738 24.8643 54.749C25.1663 54.753 26.4613 50.819 27.7413 46.006C29.0213 41.194 30.2893 36.468 30.5583 35.506C31.1233 33.489 30.7403 33.474 22.0703 35.183ZM93.8153 36.784C89.1403 38.411 85.1253 39.745 84.8943 39.749C84.1703 39.761 104.274 54.703 105.05 54.73C105.454 54.744 105.545 51.944 105.253 48.506C104.347 37.861 103.72 33.755 103.004 33.79C102.625 33.809 98.4903 35.156 93.8153 36.784ZM29.4793 44.69C28.0143 50.154 26.8153 54.845 26.8153 55.113C26.8153 55.562 38.9103 52.389 43.1263 50.835C44.6913 50.257 44.1013 49.12 38.7863 42.461C35.4033 38.223 32.5253 34.756 32.3893 34.756C32.2543 34.756 30.9443 39.226 29.4793 44.69ZM8.81528 39.28C8.81528 39.569 6.76528 46.819 4.26028 55.392C1.75428 63.964 -0.157723 71.101 0.010277 71.251C0.719277 71.883 20.2923 58.717 20.0593 57.764C19.7013 56.306 9.67828 38.756 9.20228 38.756C8.98928 38.756 8.81528 38.992 8.81528 39.28ZM125.786 44.605C122.195 47.713 117.142 52.056 114.558 54.256L109.86 58.256L105.337 92.143C102.85 110.78 100.832 126.755 100.853 127.643C100.873 128.53 108.074 109.044 116.854 84.34C125.634 59.637 132.704 39.319 132.566 39.189C132.428 39.06 129.377 41.497 125.786 44.605ZM77.3253 54.736C74.8453 59.675 72.8153 63.885 72.8153 64.091C72.8153 64.298 78.2153 62.858 84.8153 60.891C91.4153 58.924 96.8153 57.02 96.8153 56.658C96.8153 55.999 83.1823 45.756 82.3043 45.756C82.0463 45.756 79.8063 49.797 77.3253 54.736ZM35.1313 54.615L25.9463 57.256L31.2693 66.591C34.1973 71.725 36.8483 75.512 37.1613 75.005C38.4823 72.868 45.6353 51.765 45.0053 51.865C44.6263 51.926 40.1823 53.163 35.1313 54.615ZM47.4063 62.488C45.8253 66.761 44.3223 70.819 44.0663 71.506C43.3673 73.384 45.1223 73.083 57.6253 69.18L69.0793 65.605L60.6973 60.559C56.0873 57.784 51.8573 55.335 51.2983 55.117C50.7383 54.899 48.9873 58.216 47.4063 62.488ZM10.4733 66.565C5.61028 69.661 2.01028 72.318 2.47328 72.469C4.16628 73.021 28.8153 75.299 28.8153 74.903C28.8153 73.436 21.1943 60.773 20.3553 60.846C19.7833 60.895 15.3363 63.469 10.4733 66.565ZM99.6903 62.215C99.0603 62.845 43.4183 79.756 41.9753 79.756C41.3373 79.756 40.8153 80.193 40.8153 80.728C40.8153 81.263 52.8503 95.308 67.5603 111.94L94.3053 142.179L99.0063 104.218C101.591 83.339 103.73 65.243 103.76 64.006C103.798 62.471 103.232 61.756 101.982 61.756C100.973 61.756 99.9423 61.962 99.6903 62.215ZM4.95628 78.172C6.40328 79.751 80.3433 134.429 80.6723 134.163C81.1173 133.804 35.9213 82.488 34.4123 81.639C33.8093 81.299 28.5903 80.503 22.8153 79.869C17.0403 79.236 10.5153 78.437 8.31528 78.095C6.11528 77.753 4.60328 77.787 4.95628 78.172Z" fill="#334C77"/>
</svg>
