<svg width="92" height="80" viewBox="0 0 92 80" fill="none" xmlns="http://www.w3.org/2000/svg">
<path fill-rule="evenodd" clip-rule="evenodd" d="M74.5554 7.41521C65.5719 11.4911 57.4051 15.2066 56.4069 15.6725C55.4088 16.1383 42.3086 22.0913 27.2953 28.9015C12.282 35.7114 -0.000907373 41.3513 5.02751e-08 41.4345C0.000604999 41.5177 3.7773 43.1362 8.39215 45.0309C13.007 46.9259 19.7573 49.7051 23.3931 51.2072C29.4958 53.7283 30.0563 53.9049 30.6936 53.509C31.0732 53.2728 42.4363 43.8241 55.9448 32.5115C82.9454 9.90004 82.1617 10.5431 81.9055 11.211C81.8081 11.465 78.8799 15.5448 75.3987 20.2773C71.9175 25.0098 65.8218 33.3055 61.8527 38.7122C57.8836 44.119 52.7736 51.0668 50.4969 54.1517L46.3575 59.7608L46.1594 67.0069C46.0505 70.9923 45.8932 75.5461 45.8098 77.1265L45.6579 80L49.9016 71.4013C52.2355 66.6718 54.1795 62.768 54.2216 62.7263C54.2636 62.6842 60.6192 65.0172 68.3453 67.9104C76.0711 70.8039 82.4385 73.1251 82.4948 73.0691C82.652 72.9115 83.4542 66.3772 89.85 13.1532C90.19 10.325 90.6649 6.45153 90.9054 4.54534C91.4048 0.58897 91.4323 -0.00630206 91.1159 4.98994e-05C90.991 0.0024697 83.5389 3.33937 74.5554 7.41521Z" fill="white"/>
</svg>
