<svg width="164" height="150" viewBox="0 0 164 150" fill="none" xmlns="http://www.w3.org/2000/svg">
<path fill-rule="evenodd" clip-rule="evenodd" d="M63.3976 0.0989671C56.2965 1.116 50.4958 5.16151 47.3106 11.318C44.8901 15.9964 44.3553 21.3265 45.7741 26.6282C47.6899 33.7869 54.0154 39.7401 61.4221 41.3549C63.3931 41.7846 67.1599 41.8648 69.2743 41.5218C80.4681 39.7064 88.2417 29.0795 86.556 17.8971C86.2583 15.9218 85.406 13.1273 84.6324 11.5901C81.8115 5.98532 76.3928 1.7904 70.2386 0.447119C68.419 0.0499943 64.9659 -0.125774 63.3976 0.0989671ZM127.46 19.9595C122.419 20.8734 117.967 23.6683 115.077 27.733C113.232 30.328 111.806 34.1924 111.638 37.056L111.544 38.6588L112.751 39.4601C114.223 40.4374 116.866 43.0252 118.118 44.7136C119.232 46.2161 120.991 49.592 121.545 51.2888C121.766 51.9667 122.12 53.3976 122.33 54.4688L122.713 56.4161L123.774 56.8521C127.34 58.3157 132.009 58.533 136.144 57.4276C137.824 56.9787 140.721 55.5407 142.245 54.3997C143.788 53.2443 145.9 50.9789 147.008 49.2919C148.133 47.5772 149.185 44.9034 149.684 42.4875C150.011 40.9076 150.056 40.2448 149.974 38.2135C149.776 33.2598 148.043 29.1789 144.621 25.6081C141.69 22.5501 138.198 20.6859 134.029 19.9547C132.223 19.6381 129.222 19.6402 127.46 19.9595ZM30.4522 39.2767C23.8318 40.2218 18.3798 44.1752 15.5468 50.0851C11.9805 57.5243 13.4921 66.2362 19.3615 72.0727C21.6579 74.356 24.7774 76.1652 27.8586 77.0004C29.4036 77.4192 29.8676 77.4622 32.8563 77.4622C35.8697 77.4622 36.301 77.4215 37.9105 76.9861C38.8782 76.7244 40.4373 76.124 41.3753 75.6521L43.0804 74.7943L43.4555 73.1992C43.6619 72.322 44.0171 71.0432 44.2451 70.3575C45.3935 66.9036 48.0564 62.9703 50.9634 60.4335C51.6334 59.849 52.0414 59.3401 52.1167 58.9953C52.1808 58.7018 52.1555 57.6232 52.0606 56.5983C51.2843 48.219 45.0821 41.3011 36.7741 39.5479C35.1577 39.2069 31.9159 39.0678 30.4522 39.2767ZM96.61 39.2888C92.302 39.8024 88.719 41.5061 85.5938 44.5269C82.1493 47.8566 80.1721 51.9099 79.7223 56.5645L79.585 57.9845L80.8406 58.9041C81.5312 59.4101 82.9017 60.6313 83.886 61.6181C87.4589 65.1997 89.624 69.3421 90.4965 74.2659L90.788 75.9116L91.9818 76.376C92.6384 76.6314 94.0084 77.012 95.0264 77.2217C97.4312 77.7172 101.377 77.639 103.733 77.0494C105.482 76.612 108.721 75.081 110.144 74.0198C117.486 68.5452 120.073 59.2309 116.579 50.8514C114.389 45.5985 109.297 41.1704 103.911 39.8357C101.14 39.1488 99.079 38.9944 96.61 39.2888ZM54.5824 43.4933C54.2396 43.5313 53.426 43.647 52.7742 43.7505L51.5892 43.9386L52.2597 44.9494C54.2266 47.9146 55.829 52.8359 55.829 55.9113V57.0806L57.0311 56.4783C59.9529 55.0141 62.9191 54.3616 66.6921 54.3529C70.0792 54.3448 72.8078 54.8266 75.6144 55.9278C75.8504 56.0204 75.9191 55.8552 76.0112 54.9738C76.3917 51.3335 77.7286 47.5955 79.6888 44.691L80.1927 43.9443L79.0965 43.717C78.2844 43.5486 75.0472 43.4811 66.6031 43.457C60.3345 43.439 54.9253 43.4554 54.5824 43.4933ZM64.7861 59.248C59.2783 59.7477 53.9862 62.9641 50.8447 67.7205C49.4601 69.817 48.7032 71.5049 48.1294 73.7755C47.7918 75.1116 47.7346 75.8053 47.7432 78.4603C47.7521 81.2316 47.8041 81.7664 48.2133 83.2897C50.6605 92.4006 59.5519 98.5655 68.7522 97.5303C77.8291 96.509 84.6603 89.877 85.913 80.8703C87.2098 71.5471 81.2901 62.5119 72.1498 59.8633C69.9704 59.2316 67.3651 59.014 64.7861 59.248ZM122.701 60.5929C122.45 62.8326 122.025 65.0754 121.61 66.3507C120.64 69.3337 118.616 72.7506 116.33 75.2662C115.864 75.7796 115.503 76.2086 115.529 76.2195C115.555 76.2304 116.257 76.4713 117.09 76.7546C124.175 79.1671 130.563 85.1185 133.812 92.3342C135.813 96.7781 136.495 100.705 136.499 107.81L136.501 110.537L137.257 110.444C137.674 110.393 138.816 110.304 139.795 110.246C147.522 109.789 156.121 107.838 161.841 105.243L163.764 104.371L163.688 92.9741C163.603 80.2422 163.61 80.3272 162.307 76.4077C161.07 72.6872 159.001 69.4386 156.089 66.6429C152.574 63.2693 148.659 61.2062 143.659 60.093C142.036 59.7315 141.356 59.7037 132.375 59.6312L122.817 59.5543L122.701 60.5929ZM21.2565 79.3635C18.9311 79.7051 15.5842 80.7642 13.4912 81.8207C9.05463 84.0603 4.90316 88.2515 2.61693 92.7994C1.6998 94.6233 0.729962 97.5357 0.329276 99.6682C0.0495071 101.158 0.0135343 102.613 0.00712333 112.741L0 124.139L2.04795 124.809C6.33958 126.215 15.867 128.369 20.3307 128.943C23.3009 129.325 27.4492 129.74 28.3355 129.745L29.0681 129.748L29.1645 125.252C29.2284 122.274 29.3588 120.214 29.5506 119.152C30.7941 112.269 34.2081 106.11 39.1957 101.753C41.8867 99.4016 45.9595 97.0075 48.8535 96.0756L50.1033 95.6729L49.0371 94.5017C45.8325 90.9808 43.7628 86.4304 43.0573 81.3542L42.754 79.1726L32.5073 79.1944C26.8715 79.2063 21.8086 79.2825 21.2565 79.3635ZM90.8418 79.7405C90.7924 80.0648 90.7052 80.8064 90.648 81.3883C90.5114 82.779 89.7693 85.6803 89.1188 87.3671C88.2375 89.6523 86.5174 92.3843 84.5481 94.6258L83.6164 95.6863L84.8153 96.0793C91.5856 98.2989 97.9904 103.976 101.404 110.782C102.562 113.091 102.964 114.19 103.636 116.881C104.299 119.532 104.457 121.165 104.498 125.754L104.535 129.969L106.405 129.85C115.478 129.276 124.49 127.306 130.017 124.687L131.692 123.894V112.606C131.692 100.207 131.651 99.5972 130.595 96.3609C127.847 87.9404 121.498 82.0809 112.61 79.7635L110.768 79.2832L100.85 79.2172L90.9315 79.1511L90.8418 79.7405ZM56.0962 99.2407C50.033 100.027 44.7729 102.606 40.8619 106.71C37.4879 110.25 35.4852 114.071 34.4277 118.985C34.0655 120.669 34.0434 121.324 33.9745 132.453L33.9018 144.151L35.6497 144.683C45.6236 147.724 54.9185 149.388 64.7937 149.902C72.7676 150.316 82.3855 149.401 89.5886 147.542C92.2604 146.853 96.5648 145.357 98.3018 144.514L99.7265 143.823L99.6944 132.734C99.6733 125.438 99.5924 121.189 99.4578 120.31C98.2878 112.672 94.1817 106.529 87.6058 102.58C84.7157 100.844 81.4473 99.7391 77.916 99.3039C76.5109 99.1308 57.3709 99.0752 56.0962 99.2407Z" fill="white"/>
</svg>
